<?xml version="1.0" encoding="UTF-8"?><svg id="a" xmlns="http://www.w3.org/2000/svg" viewBox="0 0 600 250"><defs><style>.b{fill:#ff001a;}.c{fill:#f60;}.d{fill:#09f;}</style></defs><polygon class="c" points="77.76 0 215.56 250 181.44 250 43.37 0 77.76 0"/><polygon class="c" points="34.13 0 172.19 250 138.07 250 0 0 34.13 0"/><path class="d" d="M129.34,77.98l-17.7-32.61L137.81,0h34.39l-42.86,77.98Zm22.08,40.27L215.56,0h-34.13l-47.48,86.64,17.45,31.61Z"/><g><polygon class="d" points="86.23 172.02 103.68 203.37 77.76 250 43.37 250 86.23 172.02"/><polygon class="d" points="81.61 163.36 34.13 250 0 250 64.15 131.75 81.61 163.36"/></g><path class="b" d="M364.93,62.43c.86,3.92,1.28,8.07,1.28,12.49V250h-32.08V83.59c0-2.04-.65-3.65-1.93-4.84-1.28-1.19-2.94-1.78-5-1.78h-93.16V43.07h102.4c5.99,0,10.91,.81,14.76,2.42s6.89,3.86,9.11,6.74c2.22,2.89,3.76,6.29,4.62,10.19Z"/><rect class="b" x="275.61" y="85.12" width="35.93" height="164.88"/><rect class="b" x="234.04" y="85.12" width="32.34" height="164.88"/><path class="b" d="M407.79,76.97V250h-32.34V69.83c0-5.1-.64-9.85-1.92-14.28-1.28-4.41-3.34-8.24-6.17-11.47-2.82-3.22-6.5-5.73-11.03-7.51-4.54-1.79-10.06-2.68-16.56-2.68h-105.74V0h102.4c12.49,0,23.22,1.36,32.21,4.07,8.98,2.72,16.38,7.14,22.2,13.25,5.82,6.12,10.09,14.07,12.83,23.83,2.73,9.78,4.11,21.71,4.11,35.81Z"/><path class="c" d="M506.84,216.1h93.16v33.9h-97.26c-9.24,0-18.18-2-26.82-5.99-8.64-3.99-16.25-9.43-22.84-16.31-6.59-6.89-11.85-15.04-15.78-24.47-3.93-9.43-5.9-19.5-5.9-30.2V0h34.14V173.03c0,5.1,.94,10.24,2.83,15.42,1.88,5.19,4.57,9.81,8.09,13.89,3.5,4.08,7.82,7.39,12.96,9.94,5.13,2.55,10.94,3.82,17.44,3.82Z"/><path class="d" d="M600,173.03v33.9h-89.83c-5.99,0-11.2-1.19-15.65-3.57-4.45-2.37-8.13-5.43-11.04-9.17-2.91-3.74-5.09-7.95-6.54-12.62-1.46-4.67-2.18-9.21-2.18-13.63V0h35.16V166.41c0,2.03,.55,3.61,1.66,4.71,1.12,1.11,2.19,1.66,3.21,1.66v.25h85.2Z"/></svg>